# xmcd CD database file
#
# Track frame offsets:
#	150
#	13668
#	33060
#	63230
#	74018
#	93134
#	111073
#	135083
#	156748
#	185295
#
# Disc length: 2811 seconds
#
# Revision: 1
# Processed by: cddbd v1.5.2PL0 Copyright (c) Steve Scherf et al.
# Submitted via: CDex 1.51
#
DISCID=7a0af90a
DTITLE=Mary Timony Band - The Shapes We Make
DYEAR=2007
DGENRE=Indie
TTITLE0=Sharpshooter
TTITLE1=Killed  by the Telephone
TTITLE2=Pause/Off
TTITLE3=Summer's Fawn
TTITLE4=Each Day
TTITLE5=Curious Minds
TTITLE6=Pink Clouds
TTITLE7=Window
TTITLE8=Rockman
TTITLE9=New Song
EXTD=YEAR: 2007
EXTT0=
EXTT1=
EXTT2=
EXTT3=
EXTT4=
EXTT5=
EXTT6=
EXTT7=
EXTT8=
EXTT9=
PLAYORDER=
